<svg width="229" height="233" viewBox="0 0 229 233" fill="none" xmlns="http://www.w3.org/2000/svg">
<g clip-path="url(#clip0_293_67)">
<path d="M22.022 196.282L20.0052 188.213C16.4292 186.676 12.7707 185.344 9.04689 184.225L8.79232 187.975L7.75992 183.843C3.14178 182.504 0 181.915 0 181.915C0 181.915 4.24274 198.285 13.1445 210.801L23.5159 212.649L15.4587 213.827C16.5784 215.194 17.7818 216.488 19.0616 217.702C32.0097 229.894 46.4316 235.488 51.2736 230.196C56.1155 224.904 49.5442 210.73 36.5961 198.54C32.5821 194.76 27.5397 191.727 22.4921 189.339L22.022 196.282Z" fill="#F2F2F2"/>
<path d="M41.2023 187.518L43.5874 179.553C41.3098 176.362 38.8566 173.304 36.2395 170.393L34.1107 173.469L35.3319 169.391C32.0604 165.825 29.6712 163.673 29.6712 163.673C29.6712 163.673 24.9627 179.912 26.2048 195.293L34.1415 202.313L26.6423 199.097C26.9047 200.854 27.2758 202.593 27.7534 204.304C32.6251 221.53 42.1206 233.881 48.9619 231.89C55.8031 229.899 57.4 214.32 52.5282 197.094C51.0181 191.753 48.2467 186.513 45.1425 181.822L41.2023 187.518Z" fill="#F2F2F2"/>
<path d="M159.795 55.1978H158.537V20.2358C158.537 17.5784 158.021 14.9471 157.019 12.4919C156.016 10.0368 154.547 7.80602 152.694 5.92694C150.842 4.04787 148.643 2.55731 146.223 1.54036C143.803 0.523414 141.209 0 138.589 0H65.5686C60.278 0 55.2042 2.13199 51.4632 5.92694C47.7223 9.7219 45.6206 14.869 45.6206 20.2358V212.043C45.6206 214.701 46.1366 217.332 47.139 219.787C48.1415 222.242 49.6109 224.473 51.4632 226.352C53.3156 228.231 55.5146 229.722 57.9348 230.739C60.355 231.756 62.949 232.279 65.5686 232.279H138.589C143.879 232.279 148.953 230.147 152.694 226.352C156.435 222.557 158.537 217.41 158.537 212.043V80.0845H159.795L159.795 55.1978Z" fill="#E6E6E6"/>
<path d="M139.394 5.2627H129.863C130.302 6.35291 130.469 7.53575 130.35 8.70701C130.232 9.87828 129.831 11.002 129.184 11.9792C128.536 12.9564 127.662 13.7571 126.638 14.3106C125.613 14.8642 124.47 15.1538 123.31 15.1537H81.4772C80.3166 15.1537 79.1738 14.8641 78.1496 14.3104C77.1253 13.7568 76.2509 12.9561 75.6035 11.9789C74.9561 11.0018 74.5556 9.87807 74.4371 8.70686C74.3187 7.53565 74.486 6.35286 74.9243 5.2627H66.022C62.071 5.2627 58.2819 6.85484 55.4882 9.68888C52.6945 12.5229 51.125 16.3667 51.125 20.3746V211.904C51.125 215.912 52.6945 219.755 55.4882 222.589C58.2819 225.423 62.071 227.016 66.022 227.016H139.394C143.345 227.016 147.134 225.423 149.928 222.589C152.722 219.755 154.291 215.912 154.291 211.904V211.904V20.3743C154.291 16.3664 152.721 12.5227 149.928 9.68877C147.134 6.8548 143.345 5.2627 139.394 5.2627V5.2627Z" fill="white"/>
<path d="M93.3583 81.5586C93.358 80.2198 93.7054 78.9046 94.3655 77.7453C95.0256 76.586 95.975 75.6236 97.1183 74.9548C95.9756 74.2853 94.6793 73.9328 93.3597 73.9326C92.0401 73.9325 90.7437 74.2847 89.6008 74.954C88.4579 75.6232 87.5089 76.5858 86.849 77.7451C86.1892 78.9044 85.8418 80.2195 85.8418 81.5581C85.8418 82.8968 86.1892 84.2119 86.849 85.3711C87.5089 86.5304 88.4579 87.4931 89.6008 88.1623C90.7437 88.8316 92.0401 89.1838 93.3597 89.1837C94.6793 89.1835 95.9756 88.831 97.1183 88.1615C95.9751 87.4929 95.0257 86.5306 94.3656 85.3714C93.7055 84.2123 93.3581 82.8972 93.3583 81.5586V81.5586Z" fill="#CCCCCC"/>
<path d="M102.808 81.5586C102.808 80.2198 103.155 78.9046 103.815 77.7453C104.475 76.586 105.425 75.6235 106.568 74.9548C105.425 74.2853 104.129 73.9328 102.809 73.9326C101.49 73.9325 100.193 74.2847 99.0505 74.954C97.9077 75.6232 96.9586 76.5858 96.2987 77.7451C95.6389 78.9044 95.2915 80.2195 95.2915 81.5581C95.2915 82.8968 95.6389 84.2119 96.2987 85.3711C96.9586 86.5304 97.9077 87.4931 99.0505 88.1623C100.193 88.8316 101.49 89.1838 102.809 89.1837C104.129 89.1835 105.425 88.831 106.568 88.1615C105.425 87.4929 104.475 86.5306 103.815 85.3714C103.155 84.2123 102.808 82.8972 102.808 81.5586V81.5586Z" fill="#CCCCCC"/>
<path d="M112.043 89.1837C116.195 89.1837 119.56 85.7696 119.56 81.5581C119.56 77.3467 116.195 73.9326 112.043 73.9326C107.892 73.9326 104.526 77.3467 104.526 81.5581C104.526 85.7696 107.892 89.1837 112.043 89.1837Z" fill="#1E2541"/>
<path d="M124.606 105.375H80.7954C80.3783 105.375 79.9784 105.206 79.6835 104.907C79.3886 104.608 79.2227 104.202 79.2222 103.779V59.3361C79.2227 58.913 79.3886 58.5074 79.6835 58.2082C79.9784 57.909 80.3783 57.7407 80.7954 57.7402H124.606C125.023 57.7407 125.423 57.909 125.718 58.2082C126.013 58.5074 126.179 58.913 126.18 59.3361V103.779C126.179 104.202 126.013 104.608 125.718 104.907C125.423 105.206 125.023 105.375 124.606 105.375V105.375ZM80.7954 58.379C80.5451 58.3792 80.3052 58.4802 80.1282 58.6597C79.9513 58.8392 79.8518 59.0826 79.8515 59.3365V103.78C79.8518 104.034 79.9513 104.277 80.1282 104.456C80.3052 104.636 80.5451 104.737 80.7954 104.737H124.606C124.857 104.737 125.097 104.636 125.273 104.456C125.45 104.277 125.55 104.034 125.55 103.78V59.3365C125.55 59.0826 125.45 58.8392 125.273 58.6597C125.097 58.4802 124.857 58.3792 124.606 58.379H80.7954Z" fill="#CCCCCC"/>
<path d="M134.389 139.443H67.1958V140.082H134.389V139.443Z" fill="#CCCCCC"/>
<path d="M69.3178 135.458C70.4897 135.458 71.4398 134.494 71.4398 133.305C71.4398 132.116 70.4897 131.152 69.3178 131.152C68.1458 131.152 67.1958 132.116 67.1958 133.305C67.1958 134.494 68.1458 135.458 69.3178 135.458Z" fill="#1E2541"/>
<path d="M134.389 160.968H67.1958V161.606H134.389V160.968Z" fill="#CCCCCC"/>
<path d="M69.3178 156.983C70.4897 156.983 71.4398 156.019 71.4398 154.83C71.4398 153.641 70.4897 152.678 69.3178 152.678C68.1458 152.678 67.1958 153.641 67.1958 154.83C67.1958 156.019 68.1458 156.983 69.3178 156.983Z" fill="#1E2541"/>
<path d="M133.159 185.48H111.924C111.557 185.48 111.206 185.332 110.946 185.069C110.687 184.805 110.541 184.449 110.541 184.077V176.527C110.541 176.154 110.687 175.798 110.946 175.535C111.206 175.271 111.557 175.123 111.924 175.123H133.159C133.526 175.123 133.877 175.271 134.137 175.535C134.396 175.798 134.542 176.154 134.542 176.527V184.077C134.542 184.449 134.396 184.805 134.137 185.069C133.877 185.332 133.526 185.48 133.159 185.48V185.48Z" fill="#1E2541"/>
<path d="M76.2397 135.458C77.4116 135.458 78.3617 134.494 78.3617 133.305C78.3617 132.116 77.4116 131.152 76.2397 131.152C75.0677 131.152 74.1177 132.116 74.1177 133.305C74.1177 134.494 75.0677 135.458 76.2397 135.458Z" fill="#1E2541"/>
<path d="M83.1615 135.458C84.3335 135.458 85.2835 134.494 85.2835 133.305C85.2835 132.116 84.3335 131.152 83.1615 131.152C81.9896 131.152 81.0396 132.116 81.0396 133.305C81.0396 134.494 81.9896 135.458 83.1615 135.458Z" fill="#1E2541"/>
<path d="M76.2397 156.983C77.4116 156.983 78.3617 156.019 78.3617 154.83C78.3617 153.641 77.4116 152.678 76.2397 152.678C75.0677 152.678 74.1177 153.641 74.1177 154.83C74.1177 156.019 75.0677 156.983 76.2397 156.983Z" fill="#1E2541"/>
<path d="M83.1615 156.983C84.3335 156.983 85.2835 156.019 85.2835 154.83C85.2835 153.641 84.3335 152.678 83.1615 152.678C81.9896 152.678 81.0396 153.641 81.0396 154.83C81.0396 156.019 81.9896 156.983 83.1615 156.983Z" fill="#1E2541"/>
<path d="M228.145 233H7.40317C6.93062 233 6.54785 232.83 6.54785 232.62C6.54785 232.411 6.93062 232.24 7.40317 232.24H228.145C228.617 232.24 229 232.411 229 232.62C229 232.83 228.617 233 228.145 233Z" fill="#3F3D56"/>
<path d="M173.607 152.654C173.758 152.724 173.903 152.806 174.041 152.9L187.83 146.929L188.323 143.244L193.832 143.21L193.507 151.661L175.306 156.544C175.268 156.673 175.222 156.798 175.169 156.921C174.905 157.491 174.482 157.969 173.952 158.295C173.422 158.622 172.809 158.782 172.189 158.756C171.57 158.73 170.972 158.519 170.47 158.149C169.968 157.779 169.585 157.267 169.37 156.677C169.154 156.088 169.115 155.446 169.257 154.834C169.399 154.222 169.716 153.666 170.169 153.236C170.622 152.806 171.19 152.522 171.801 152.418C172.413 152.314 173.041 152.397 173.607 152.654V152.654Z" fill="#FFB8B8"/>
<path d="M195.837 229.24H192.067L190.274 214.491L195.837 214.492L195.837 229.24Z" fill="#FFB8B8"/>
<path d="M189.375 228.147H196.644V232.79H184.798C184.798 231.559 185.28 230.378 186.138 229.507C186.997 228.637 188.161 228.147 189.375 228.147Z" fill="#2F2E41"/>
<path d="M210.495 228.16L206.744 228.534L203.534 214.036L209.07 213.482L210.495 228.16Z" fill="#FFB8B8"/>
<path d="M203.96 227.715L211.194 226.992L211.642 231.613L199.853 232.791C199.795 232.184 199.854 231.571 200.028 230.988C200.203 230.404 200.489 229.861 200.87 229.39C201.252 228.919 201.721 228.528 202.251 228.241C202.781 227.953 203.361 227.775 203.96 227.715Z" fill="#2F2E41"/>
<path d="M196.886 127.602C201.056 127.602 204.437 124.172 204.437 119.941C204.437 115.711 201.056 112.281 196.886 112.281C192.715 112.281 189.334 115.711 189.334 119.941C189.334 124.172 192.715 127.602 196.886 127.602Z" fill="#FFB8B8"/>
<path d="M191.225 226.258C190.901 226.258 190.587 226.143 190.339 225.932C190.091 225.721 189.924 225.428 189.868 225.104C187.917 214.118 181.54 178.196 181.387 177.201C181.384 177.178 181.382 177.155 181.382 177.132V174.453C181.382 174.356 181.412 174.26 181.468 174.181L182.311 172.984C182.351 172.927 182.403 172.879 182.464 172.845C182.525 172.812 182.593 172.792 182.662 172.789C187.465 172.561 203.195 171.891 203.955 172.855C204.718 173.822 204.448 176.755 204.386 177.333L204.389 177.394L211.456 223.239C211.511 223.604 211.423 223.977 211.209 224.277C210.995 224.577 210.674 224.779 210.314 224.84L205.9 225.578C205.571 225.631 205.235 225.563 204.951 225.386C204.668 225.209 204.456 224.935 204.355 224.613C202.99 220.188 198.413 205.302 196.826 199.542C196.816 199.506 196.793 199.474 196.762 199.453C196.731 199.432 196.694 199.424 196.657 199.429C196.62 199.435 196.586 199.453 196.562 199.482C196.537 199.511 196.524 199.547 196.525 199.585C196.604 205.076 196.795 219.085 196.861 223.924L196.869 224.445C196.872 224.798 196.744 225.139 196.511 225.401C196.278 225.663 195.957 225.826 195.61 225.86L191.354 226.252C191.311 226.256 191.268 226.258 191.225 226.258Z" fill="#2F2E41"/>
<path d="M192.093 130.614C190.776 131.409 189.987 132.869 189.535 134.355C188.697 137.106 188.193 139.951 188.033 142.826L187.555 151.434L181.635 174.254C186.766 178.658 189.725 177.657 196.632 174.055C203.539 170.452 204.328 175.256 204.328 175.256L205.709 155.839L207.683 134.621C207.24 134.079 206.738 133.59 206.188 133.163C204.364 131.724 202.242 130.724 199.982 130.238C197.721 129.752 195.382 129.793 193.139 130.357L192.093 130.614Z" fill="#1E2541"/>
<path d="M190.171 157.263C190.33 157.324 190.484 157.397 190.632 157.483L204.267 150.56L204.493 146.809L210.117 146.416L210.419 154.966L192.198 161.078C192.049 161.726 191.709 162.312 191.224 162.758C190.739 163.205 190.131 163.492 189.482 163.58C188.832 163.668 188.172 163.553 187.588 163.251C187.005 162.948 186.525 162.473 186.215 161.888C185.904 161.303 185.776 160.636 185.848 159.975C185.92 159.314 186.188 158.692 186.618 158.19C187.047 157.687 187.617 157.33 188.252 157.165C188.886 156.999 189.556 157.034 190.171 157.263Z" fill="#FFB8B8"/>
<path d="M207.584 134.718C210.938 135.919 211.529 148.931 211.529 148.931C207.583 146.729 202.847 150.333 202.847 150.333C202.847 150.333 201.86 146.93 200.676 142.526C200.318 141.287 200.276 139.976 200.552 138.716C200.828 137.456 201.413 136.288 202.254 135.319C202.254 135.319 204.229 133.516 207.584 134.718Z" fill="#1E2541"/>
<path d="M203.656 121.967C202.716 121.204 201.432 122.591 201.432 122.591L200.679 115.72C200.679 115.72 195.975 116.291 192.964 115.529C189.954 114.766 189.483 118.297 189.483 118.297C189.328 116.871 189.297 115.434 189.389 114.002C189.577 112.284 192.024 110.566 196.351 109.421C200.679 108.275 202.937 113.238 202.937 113.238C205.948 114.765 204.597 122.731 203.656 121.967Z" fill="#2F2E41"/>
</g>
<defs>
<clipPath id="clip0_293_67">
<rect width="229" height="233" fill="white"/>
</clipPath>
</defs>
</svg>
