<svg width="53" height="53" viewBox="0 0 53 53" fill="none" xmlns="http://www.w3.org/2000/svg">
<path d="M35.3333 50.2399H17.6667C9.60625 50.2399 4.96875 45.6024 4.96875 37.542V15.4587C4.96875 7.39824 9.60625 2.76074 17.6667 2.76074H35.3333C43.3937 2.76074 48.0312 7.39824 48.0312 15.4587V37.542C48.0312 45.6024 43.3937 50.2399 35.3333 50.2399ZM17.6667 6.07324C11.3508 6.07324 8.28125 9.14283 8.28125 15.4587V37.542C8.28125 43.8578 11.3508 46.9274 17.6667 46.9274H35.3333C41.6492 46.9274 44.7188 43.8578 44.7188 37.542V15.4587C44.7188 9.14283 41.6492 6.07324 35.3333 6.07324H17.6667Z" fill="#354374"/>
<path d="M19.8752 24.5349C19.514 24.5367 19.1561 24.4672 18.8218 24.3305C18.4876 24.1937 18.1836 23.9924 17.9272 23.7381C17.6708 23.4838 17.4671 23.1814 17.3277 22.8482C17.1883 22.5151 17.1159 22.1577 17.1147 21.7966V4.41699C17.1147 3.51158 17.8656 2.76074 18.771 2.76074H34.2293C35.1347 2.76074 35.8856 3.51158 35.8856 4.41699V21.7745C35.8856 22.8787 35.2452 23.8724 34.2293 24.292C33.2356 24.7337 32.0652 24.5349 31.2481 23.7841L26.5002 19.4337L21.7522 23.8062C21.2222 24.292 20.5597 24.5349 19.8752 24.5349ZM26.5002 15.9224C27.1627 15.9224 27.8472 16.1653 28.3772 16.6512L32.5731 20.5157V6.07324H20.4272V20.5157L24.6231 16.6512C25.1531 16.1653 25.8377 15.9224 26.5002 15.9224ZM38.646 32.5732H29.2606C28.3552 32.5732 27.6043 31.8224 27.6043 30.917C27.6043 30.0116 28.3552 29.2607 29.2606 29.2607H38.646C39.5514 29.2607 40.3022 30.0116 40.3022 30.917C40.3022 31.8224 39.5514 32.5732 38.646 32.5732ZM38.646 41.4066H19.8752C18.9697 41.4066 18.2189 40.6557 18.2189 39.7503C18.2189 38.8449 18.9697 38.0941 19.8752 38.0941H38.646C39.5514 38.0941 40.3022 38.8449 40.3022 39.7503C40.3022 40.6557 39.5514 41.4066 38.646 41.4066Z" fill="#354374"/>
</svg>
