<svg width="55" height="55" viewBox="0 0 55 55" fill="none" xmlns="http://www.w3.org/2000/svg">
<path d="M27.5 50.6C26.8125 50.6 26.125 50.4396 25.5521 50.1188C21.2667 47.7813 13.7271 45.3063 9.00629 44.6875L8.34171 44.5959C5.33962 44.2292 2.86462 41.4104 2.86462 38.3625V10.6792C2.86462 8.86879 3.57504 7.21879 4.88129 6.02712C6.18754 4.83546 7.88337 4.26254 9.67087 4.42295C14.7125 4.81254 22.3209 7.33337 26.6292 10.0375L27.1792 10.3584C27.3396 10.45 27.6834 10.45 27.8209 10.3813L28.1875 10.1521C32.4959 7.44795 40.1042 4.88129 45.1688 4.44587H45.4438C47.1167 4.28545 48.8355 4.88129 50.1188 6.07295C51.425 7.26462 52.1355 8.91462 52.1355 10.725V38.3855C52.1355 41.4563 49.6605 44.2521 46.6355 44.6188L45.8792 44.7105C41.1584 45.3292 33.5959 47.8271 29.4021 50.1417C28.8521 50.4625 28.1875 50.6 27.5 50.6ZM9.12087 7.83754C8.38754 7.83754 7.72296 8.08962 7.19587 8.57087C6.62296 9.09795 6.30212 9.8542 6.30212 10.6792V38.3625C6.30212 39.7146 7.47087 41.0209 8.77712 41.2042L9.46462 41.2959C14.6209 41.9834 22.5271 44.573 27.1105 47.0709C27.3167 47.1625 27.6146 47.1855 27.7292 47.1396C32.3125 44.5959 40.2646 41.9834 45.4438 41.2959L46.223 41.2042C47.5292 41.0438 48.698 39.7146 48.698 38.3625V10.7021C48.698 9.8542 48.3771 9.12087 47.8042 8.57087C47.2084 8.04379 46.4521 7.7917 45.6042 7.83754H45.3292C40.9521 8.22712 33.8938 10.5875 30.0438 12.9938L29.6771 13.2459C28.4167 14.025 26.6292 14.025 25.4146 13.2688L24.8646 12.948C20.9459 10.5417 13.8875 8.2042 9.39587 7.83754H9.12087Z" fill="#354374" fill-opacity="0.5"/>
<path d="M27.5 48.6709C26.5604 48.6709 25.7812 47.8917 25.7812 46.9522V12.5771C25.7812 11.6376 26.5604 10.8584 27.5 10.8584C28.4395 10.8584 29.2187 11.6376 29.2187 12.5771V46.9522C29.2187 47.9147 28.4395 48.6709 27.5 48.6709ZM17.7604 21.1709H12.6041C11.6645 21.1709 10.8854 20.3917 10.8854 19.4521C10.8854 18.5126 11.6645 17.7334 12.6041 17.7334H17.7604C18.7 17.7334 19.4791 18.5126 19.4791 19.4521C19.4791 20.3917 18.7 21.1709 17.7604 21.1709ZM19.4791 28.0459H12.6041C11.6645 28.0459 10.8854 27.2667 10.8854 26.3271C10.8854 25.3876 11.6645 24.6084 12.6041 24.6084H19.4791C20.4187 24.6084 21.1979 25.3876 21.1979 26.3271C21.1979 27.2667 20.4187 28.0459 19.4791 28.0459Z" fill="#354374" fill-opacity="0.5"/>
</svg>
