<svg width="22" height="24" viewBox="0 0 22 24" fill="none" xmlns="http://www.w3.org/2000/svg">
<path d="M10.2719 2H8.55734C4.271 2 2.55646 4 2.55646 9V15C2.55646 20 4.271 22 8.55734 22H13.701C17.9873 22 19.7018 20 19.7018 15V13" stroke="#F0719C" stroke-width="1.5" stroke-linecap="round" stroke-linejoin="round"/>
<path d="M14.5925 3.02025L7.83724 10.9003C7.58005 11.2003 7.32287 11.7903 7.27144 12.2203L6.90281 15.2303C6.76565 16.3203 7.42575 17.0803 8.36017 16.9303L10.9406 16.5003C11.3006 16.4403 11.8064 16.1403 12.0721 15.8403L18.8274 7.96025C19.9933 6.60025 20.542 5.02025 18.8274 3.02025C17.1129 1.02025 15.7584 1.66025 14.5925 3.02025V3.02025Z" stroke="#F0719C" stroke-width="1.5" stroke-miterlimit="10" stroke-linecap="round" stroke-linejoin="round"/>
<path d="M13.6238 4.15039C13.9081 5.32786 14.4468 6.40046 15.1883 7.26544C15.9298 8.13042 16.8493 8.7588 17.8587 9.09039" stroke="#F0719C" stroke-width="1.5" stroke-miterlimit="10" stroke-linecap="round" stroke-linejoin="round"/>
</svg>
