<svg width="53" height="54" viewBox="0 0 53 54" fill="none" xmlns="http://www.w3.org/2000/svg">
<path d="M46.1541 22.1623L47.457 44.4148C47.5012 45.0223 47.2141 45.4273 47.0595 45.6073C46.8829 45.8098 46.5074 46.1248 45.8891 46.1248H39.8604L44.6304 22.1623H46.1541ZM48.5833 13.4998L48.5612 13.5448C48.6054 14.0848 48.5612 14.6473 48.4287 15.2098L32.1533 45.6523C31.895 46.7532 31.2787 47.7326 30.4046 48.4312C29.5305 49.1298 28.45 49.5064 27.3391 49.4998H45.8891C46.5629 49.5018 47.2297 49.3617 47.8477 49.0882C48.4657 48.8148 49.0215 48.4139 49.4799 47.9108C49.9384 47.4078 50.2896 46.8135 50.5116 46.1653C50.7335 45.5172 50.8214 44.8292 50.7695 44.1448L48.5833 13.4998ZM25.2854 5.04202C25.5062 4.14202 24.9541 3.21952 24.0708 2.99452C23.1874 2.79202 22.282 3.33202 22.0612 4.23202L20.957 8.88952H24.3579L25.2854 5.04202ZM39.8604 4.97002C40.0591 4.04752 39.4849 3.17002 38.5795 2.96752C38.3664 2.92137 38.1463 2.91853 37.9321 2.95918C37.7178 2.99982 37.5136 3.08315 37.331 3.20438C37.1484 3.32561 36.9911 3.48237 36.8681 3.66566C36.7451 3.84896 36.6588 4.05518 36.6141 4.27252L35.6204 8.93002H39.0212L39.8604 4.97002Z" fill="#F0719C"/>
<path d="M48.1859 11.9947C47.4572 10.1947 45.7347 8.91219 43.6147 8.91219H39.0214L37.7847 14.7397C37.608 15.5272 36.9234 16.0672 36.1726 16.0672C36.0622 16.0672 35.9297 16.0672 35.8193 16.0222C35.3928 15.9224 35.021 15.6579 34.7821 15.2844C34.5432 14.9109 34.4558 14.4575 34.5384 14.0197L35.6205 8.88969H24.358L22.9668 14.7397C22.7901 15.5047 22.1055 16.0222 21.3547 16.0222C21.2222 16.0222 21.0897 15.9997 20.9572 15.9772C20.7452 15.9245 20.5455 15.8297 20.3696 15.6981C20.1938 15.5666 20.0451 15.4009 19.9322 15.2106C19.8194 15.0204 19.7445 14.8093 19.712 14.5894C19.6794 14.3696 19.6898 14.1454 19.7426 13.9297L20.9351 8.86719H16.4522C14.288 8.86719 12.3668 10.3072 11.7264 12.4222L2.42928 42.9097C1.45761 46.1722 3.82053 49.5022 7.15511 49.5022H36.1726C38.4693 49.5022 40.4568 47.9272 40.9868 45.6547L48.4289 15.2122C48.5614 14.6497 48.6055 14.0872 48.5614 13.5472C48.5282 13.011 48.401 12.4852 48.1859 11.9947ZM32.4626 37.6897H14.7959C13.8905 37.6897 13.1397 36.9247 13.1397 36.0022C13.1397 35.0797 13.8905 34.3147 14.7959 34.3147H32.4626C33.368 34.3147 34.1189 35.0797 34.1189 36.0022C34.1189 36.9247 33.368 37.6897 32.4626 37.6897ZM34.6709 28.6897H17.0043C16.0989 28.6897 15.348 27.9247 15.348 27.0022C15.348 26.0797 16.0989 25.3147 17.0043 25.3147H34.6709C35.5764 25.3147 36.3272 26.0797 36.3272 27.0022C36.3272 27.9247 35.5764 28.6897 34.6709 28.6897Z" fill="#F0719C"/>
</svg>
