<svg width="62" height="62" viewBox="0 0 62 62" fill="none" xmlns="http://www.w3.org/2000/svg">
<path d="M22.8797 5.42871C16.2191 5.42871 10.8043 10.8436 10.8043 17.5041C10.8043 24.0375 15.9141 29.3253 22.5746 29.5541C22.778 29.5287 22.9814 29.5287 23.1339 29.5541H23.3119C26.4371 29.4498 29.3993 28.1342 31.5722 25.8855C33.745 23.6367 34.9581 20.6311 34.9551 17.5041C34.9551 10.8436 29.5402 5.42871 22.8797 5.42871ZM35.794 36.3138C28.7013 31.5853 17.1343 31.5853 9.99078 36.3138C6.7622 38.4746 4.98267 41.3982 4.98267 44.5251C4.98267 47.6519 6.7622 50.55 9.96536 52.6855C13.5244 55.0751 18.2021 56.27 22.8797 56.27C27.5573 56.27 32.2349 55.0751 35.794 52.6855C38.9972 50.5246 40.7767 47.6265 40.7767 44.4742C40.7513 41.3473 38.9972 38.4492 35.794 36.3138ZM50.8184 18.9989C51.2251 23.9308 47.7169 28.2525 42.8613 28.8372H42.7342C42.5817 28.8372 42.4291 28.8372 42.302 28.888C39.8361 29.0152 37.5735 28.2271 35.8703 26.778C38.4887 24.4392 39.9886 20.931 39.6836 17.1177C39.5091 15.1348 38.8357 13.2283 37.7261 11.5757C39.0582 10.9277 40.5279 10.6134 42.0085 10.6601C43.4891 10.7067 44.9362 11.1129 46.2248 11.8436C47.5134 12.5742 48.605 13.6074 49.4052 14.854C50.2055 16.1005 50.6905 17.5231 50.8184 18.9989Z" fill="#354374"/>
<path d="M55.8977 42.5197C55.6943 44.9856 54.1182 47.121 51.4743 48.5701C48.9321 49.9683 45.7289 50.6292 42.5512 50.553C44.3816 48.9006 45.4493 46.8414 45.6527 44.6551C45.9069 41.5028 44.407 38.4776 41.4072 36.0625C39.704 34.7151 37.721 33.6474 35.5602 32.8593C41.1784 31.2323 48.2457 32.3255 52.5929 35.8337C54.9317 37.7149 56.1265 40.0792 55.8977 42.5197Z" fill="#354374"/>
</svg>
