<svg width="29" height="29" viewBox="0 0 29 29" fill="none" xmlns="http://www.w3.org/2000/svg">
<path d="M13.8959 26.2816C7.06883 26.2816 1.5105 20.7232 1.5105 13.8962C1.5105 7.06908 7.06883 1.51074 13.8959 1.51074C20.723 1.51074 26.2813 7.06908 26.2813 13.8962C26.2813 20.7232 20.723 26.2816 13.8959 26.2816ZM13.8959 3.32324C8.05967 3.32324 3.323 8.07199 3.323 13.8962C3.323 19.7203 8.05967 24.4691 13.8959 24.4691C19.7322 24.4691 24.4688 19.7203 24.4688 13.8962C24.4688 8.07199 19.7322 3.32324 13.8959 3.32324ZM26.5834 27.4911C26.3538 27.4911 26.1242 27.4065 25.943 27.2253L23.5263 24.8086C23.3578 24.6381 23.2633 24.408 23.2633 24.1682C23.2633 23.9284 23.3578 23.6983 23.5263 23.5278C23.8767 23.1774 24.4567 23.1774 24.8072 23.5278L27.2238 25.9445C27.5742 26.2949 27.5742 26.8749 27.2238 27.2253C27.0426 27.4065 26.813 27.4911 26.5834 27.4911Z" fill="#EEFDFF"/>
</svg>
